<?xml version="1.0" standalone="no"?><!DOCTYPE svg PUBLIC "-//W3C//DTD SVG 1.1//EN" "http://www.w3.org/Graphics/SVG/1.1/DTD/svg11.dtd"><svg t="1776848387750" class="icon" viewBox="0 0 1024 1024" version="1.1" xmlns="http://www.w3.org/2000/svg" p-id="6016" xmlns:xlink="http://www.w3.org/1999/xlink" width="200" height="200"><path d="M832 96a96 96 0 0 1 37.056 184.576c6.016 220.992-43.2 352.576-154.88 389.76-87.232 29.12-145.856-14.848-242.496-137.536-40.448-51.392-43.136-54.72-58.176-71.296-36.736-40.64-62.016-54.272-83.392-47.168-57.728 19.2-95.36 128.448-104.128 327.872a96 96 0 1 1-64-1.408c9.6-227.328 55.872-356.48 147.84-387.2 52.864-17.536 99.008 7.36 151.168 64.96 16.448 18.176 19.2 21.568 60.992 74.624 79.552 100.992 122.24 132.992 171.904 116.48 76.928-25.664 116.352-132.608 111.296-325.376A96 96 0 0 1 832 96z" p-id="6017"></path></svg>