<?xml version="1.0" standalone="no"?><!DOCTYPE svg PUBLIC "-//W3C//DTD SVG 1.1//EN" "http://www.w3.org/Graphics/SVG/1.1/DTD/svg11.dtd"><svg t="1773929680693" class="icon" viewBox="0 0 1024 1024" version="1.1" xmlns="http://www.w3.org/2000/svg" p-id="23818" xmlns:xlink="http://www.w3.org/1999/xlink" width="200" height="200"><path d="M938.4 170.4V256c0 47.2-38.4 85.6-85.6 85.6H768c-36.8 0-68.8-23.2-80.8-57.6-28.8 9.6-56 29.6-79.2 58.4-34.4 44-53.6 105.6-53.6 170.4 0 104-39.2 197.6-101.6 256h113.6c7.2-12.8 18.4-24 31.2-31.2 40.8-23.2 92.8-9.6 116.8 31.2s9.6 92.8-31.2 116.8c-40.8 23.2-92.8 9.6-116.8-31.2H341.6c0 47.2-38.4 85.6-85.6 85.6H170.4c-47.2 0-85.6-38.4-85.6-85.6V768c0-47.2 38.4-85.6 85.6-85.6H256c36.8 0 68.8 23.2 80.8 57.6 74.4-24 132.8-116 132.8-228.8v-14.4c3.2-77.6 28-151.2 71.2-207.2 9.6-12 20-24 30.4-33.6H457.6c-15.2 26.4-43.2 42.4-73.6 42.4-47.2 0-85.6-38.4-85.6-85.6 0-30.4 16-58.4 42.4-73.6 40.8-23.2 92.8-9.6 116.8 31.2h224.8c0-47.2 38.4-85.6 85.6-85.6h85.6c47.2 0.8 84.8 38.4 84.8 85.6zM256 768H170.4v85.6H256V768z m512-512h85.6V170.4H768V256z" p-id="23819"></path></svg>