<?xml version="1.0" standalone="no"?><!DOCTYPE svg PUBLIC "-//W3C//DTD SVG 1.1//EN" "http://www.w3.org/Graphics/SVG/1.1/DTD/svg11.dtd"><svg t="1776849604736" class="icon" viewBox="0 0 1024 1024" version="1.1" xmlns="http://www.w3.org/2000/svg" p-id="32523" xmlns:xlink="http://www.w3.org/1999/xlink" width="200" height="200"><path d="M475.428571 584.411429V329.289143a36.571429 36.571429 0 0 1 36.571429-36.571429 36.571429 36.571429 0 0 1 36.425143 36.571429v255.268571h400.822857c40.228571 0 73.069714 32.841143 73.069714 72.996572v292.059428c0 40.228571-32.914286 72.996571-73.069714 72.996572H72.996571c-40.155429 0-72.996571-32.841143-72.996571-72.996572V657.554286c0-40.228571 32.914286-72.996571 72.996571-72.996572H475.428571z m401.554286-145.773715a36.498286 36.498286 0 0 1-36.425143-36.571428 328.996571 328.996571 0 0 0-328.630857-328.557715 328.996571 328.996571 0 0 0-328.557714 328.630858 36.498286 36.498286 0 1 1-73.069714 0c0-54.198857 10.678857-106.788571 31.670857-156.306286a400.018286 400.018286 0 0 1 86.016-127.707429A400.091429 400.091429 0 0 1 511.926857 0.731429a400.091429 400.091429 0 0 1 284.013714 117.613714 399.945143 399.945143 0 0 1 117.613715 283.940571 36.425143 36.425143 0 0 1-36.571429 36.425143z m-145.627428 0a36.498286 36.498286 0 0 1-36.571429-36.571428A182.857143 182.857143 0 0 0 512.219429 219.428571a182.857143 182.857143 0 0 0-182.637715 182.710858 36.498286 36.498286 0 1 1-72.996571 0c0-68.388571 26.550857-132.608 74.825143-180.882286a254.098286 254.098286 0 0 1 180.809143-74.825143c68.388571 0 132.608 26.624 180.882285 74.825143a254.098286 254.098286 0 0 1 74.825143 180.882286c0 20.187429-16.310857 36.498286-36.571428 36.498285z m217.819428 218.843429H73.142857l-0.146286 0.073143v291.84l0.146286 0.146285h876.032l0.073143-0.073142V657.554286l-0.073143-0.146286z" fill="#8a8a8a" p-id="32524"></path><path d="M183.369143 767.122286a36.498286 36.498286 0 1 0 0 72.996571 36.498286 36.498286 0 0 0 0-72.996571z m146.139428 0a36.498286 36.498286 0 1 0 0 72.996571 36.498286 36.498286 0 0 0 0-72.996571z" fill="#8a8a8a" p-id="32525"></path></svg>