<?xml version="1.0" standalone="no"?><!DOCTYPE svg PUBLIC "-//W3C//DTD SVG 1.1//EN" "http://www.w3.org/Graphics/SVG/1.1/DTD/svg11.dtd"><svg t="1776849308054" class="icon" viewBox="0 0 1024 1024" version="1.1" xmlns="http://www.w3.org/2000/svg" p-id="26981" xmlns:xlink="http://www.w3.org/1999/xlink" width="200" height="200"><path d="M256 640h128a42.666667 42.666667 0 0 1 0 85.333333H256v128h298.666667V213.333333a42.666667 42.666667 0 0 0-42.666667-42.666666H298.666667a42.666667 42.666667 0 0 0-42.666667 42.666666v85.333334h128a42.666667 42.666667 0 0 1 0 85.333333H256v85.333333h128a42.666667 42.666667 0 0 1 0 85.333334H256z m-85.333333 213.333333V170.666667a85.333333 85.333333 0 0 1 85.333333-85.333334h298.666667a85.333333 85.333333 0 0 1 85.333333 85.333334v213.333333h128a85.333333 85.333333 0 0 1 85.333333 85.333333v384h42.666667a42.666667 42.666667 0 0 1 0 85.333334H128a42.666667 42.666667 0 0 1 0-85.333334z m469.333333 0h128v-341.333333a42.666667 42.666667 0 0 0-42.666667-42.666667h-85.333333z" fill="#8a8a8a" p-id="26982"></path></svg>