<?xml version="1.0" standalone="no"?><!DOCTYPE svg PUBLIC "-//W3C//DTD SVG 1.1//EN" "http://www.w3.org/Graphics/SVG/1.1/DTD/svg11.dtd"><svg t="1773930890991" class="icon" viewBox="0 0 1024 1024" version="1.1" xmlns="http://www.w3.org/2000/svg" p-id="44206" xmlns:xlink="http://www.w3.org/1999/xlink" width="200" height="200"><path d="M160 160a64 64 0 1 0 0 128 64 64 0 0 0 0-128zM0 224a160 160 0 1 1 320 0 160 160 0 0 1-320 0zM864 736a64 64 0 1 0 0 128 64 64 0 0 0 0-128z m-160 64a160 160 0 1 1 320 0 160 160 0 0 1-320 0z" fill="#333333" p-id="44207"></path><path d="M464 272H288v-96h204.8c37.12 0 67.2 30.08 67.2 67.2v508.8h176v96H531.2c-37.12 0-67.2-30.08-67.2-67.2V272z" fill="#333333" p-id="44208"></path></svg>