<?xml version="1.0" standalone="no"?><!DOCTYPE svg PUBLIC "-//W3C//DTD SVG 1.1//EN" "http://www.w3.org/Graphics/SVG/1.1/DTD/svg11.dtd"><svg t="1773924478396" class="icon" viewBox="0 0 1025 1024" version="1.1" xmlns="http://www.w3.org/2000/svg" p-id="6994" xmlns:xlink="http://www.w3.org/1999/xlink" width="200.1953125" height="200"><path d="M850.056533 1017.6s32-121.6 81.066667-251.733333c34.133333-113.066667 55.466667-262.4 68.266667-375.466667 2.133333-21.333333 12.8-130.133333-40.533334-142.933333-38.4-10.666667-68.266667 21.333333-78.933333 59.733333-8.533333 27.733333-38.4 104.533333-38.4 104.533333l27.733333-198.4c6.4-64-27.733333-102.4-76.8-106.666666-49.066667-4.266667-89.6 19.2-100.266666 87.466666L662.3232 390.4l-10.666667-266.666667c-4.266667-55.466667-36.266667-96-89.6-98.133333-53.333333-2.133333-96 36.266667-100.266666 89.6L470.3232 384 391.389867 140.8C367.9232 83.2 320.989867 64 274.056533 83.2s-64 70.4-53.333333 121.6l96 369.066667L195.1232 448c-32-34.133333-89.6-51.2-132.266667-21.333333s-51.2 83.2-34.133333 130.133333c0 0 6.4 21.333333 68.266667 102.4 68.266667 85.333333 106.666667 251.733333 260.266666 360.533333" fill="#FFFFFF" p-id="6995"></path><path d="M852.189867 1019.733333h-6.4c-10.666667-4.266667-17.066667-14.933333-14.933334-25.6 0 0 29.866667-104.533333 81.066667-232.533333 34.133333-108.8 53.333333-256 68.266667-371.2 6.4-44.8 2.133333-113.066667-25.6-121.6-34.133333-10.666667-51.2 40.533333-53.333334 46.933333-8.533333 27.733333-36.266667 102.4-38.4 106.666667-4.266667 10.666667-14.933333 14.933333-25.6 12.8-10.666667-2.133333-17.066667-12.8-14.933333-23.466667l27.733333-198.4c2.133333-25.6-2.133333-46.933333-12.8-61.866666-10.666667-12.8-25.6-21.333333-44.8-23.466667-42.666667-4.266667-68.266667 19.2-76.8 70.4L683.656533 394.666667c-2.133333 10.666667-12.8 19.2-21.333333 17.066666-10.666667 0-19.2-8.533333-19.2-21.333333l-12.8-266.666667c-4.266667-46.933333-29.866667-76.8-68.266667-78.933333-40.533333-2.133333-74.666667 27.733333-78.933333 68.266667L491.656533 384c0 10.666667-6.4 19.2-17.066666 21.333333-10.666667 2.133333-21.333333-4.266667-23.466667-14.933333L372.189867 147.2c-19.2-42.666667-51.2-59.733333-89.6-44.8-40.533333 17.066667-46.933333 61.866667-40.533334 98.133333l96 366.933334c2.133333 8.533333-2.133333 19.2-10.666666 23.466666s-19.2 4.266667-25.6-4.266666l-121.6-125.866667c-25.6-27.733333-70.4-42.666667-104.533334-19.2-38.4 27.733333-38.4 72.533333-25.6 104.533333v2.133334s8.533333 21.333333 66.133334 93.866666c23.466667 29.866667 42.666667 72.533333 64 115.2 17.066667 36.266667 34.133333 74.666667 57.6 110.933334 38.4 64 106.666667 96 132.266666 108.8 10.666667 4.266667 14.933333 17.066667 10.666667 27.733333-4.266667 10.666667-17.066667 14.933333-27.733333 10.666667-32-12.8-108.8-51.2-153.6-125.866667-23.466667-38.4-42.666667-78.933333-59.733334-115.2-19.2-42.666667-36.266667-78.933333-57.6-106.666667-57.6-72.533333-70.4-100.266667-72.533333-106.666666-21.333333-59.733333-6.4-119.466667 40.533333-153.6 51.2-38.4 121.6-17.066667 160 23.466666l66.133334 66.133334L201.5232 211.2c-14.933333-68.266667 10.666667-125.866667 64-147.2 59.733333-23.466667 117.333333 2.133333 145.066667 68.266667l32 98.133333-4.266667-117.333333v-2.133334c6.4-66.133333 59.733333-110.933333 123.733333-108.8 61.866667 2.133333 104.533333 49.066667 108.8 117.333334l2.133334 59.733333c12.8-66.133333 57.6-102.4 121.6-96 29.866667 4.266667 55.466667 17.066667 72.533333 38.4 19.2 23.466667 27.733333 55.466667 23.466667 91.733333l-4.266667 36.266667c21.333333-23.466667 49.066667-34.133333 78.933333-25.6 70.4 19.2 61.866667 132.266667 57.6 166.4-14.933333 121.6-36.266667 270.933333-70.4 384-49.066667 128-78.933333 230.4-81.066666 230.4-2.133333 10.666667-10.666667 14.933333-19.2 14.933333z" fill="" p-id="6996"></path></svg>