<?xml version="1.0" standalone="no"?><!DOCTYPE svg PUBLIC "-//W3C//DTD SVG 1.1//EN" "http://www.w3.org/Graphics/SVG/1.1/DTD/svg11.dtd"><svg t="1776849705591" class="icon" viewBox="0 0 1024 1024" version="1.1" xmlns="http://www.w3.org/2000/svg" p-id="32849" xmlns:xlink="http://www.w3.org/1999/xlink" width="200" height="200"><path d="M960 190.464V768c0 50.688-34.0992 95.232-83.2 108.2368l-151.1936 40.1408a14.0288 14.0288 0 0 1-17.6128-13.568V202.2912c0-6.144 4.0448-11.52 9.8816-13.3632l169.6768-51.968A56.0128 56.0128 0 0 1 960 190.464z m-308.0192 24.4224V903.168c0 9.216-8.6528 15.872-17.4592 13.568l-227.5328-59.3408a28.0064 28.0064 0 0 1-20.8896-27.136V142.0288c0-9.216 8.6528-15.872 17.5104-13.568l227.4816 59.2896a28.0064 28.0064 0 0 1 20.8896 27.136zM329.984 142.336v696.32c0 6.656-4.7104 12.4416-11.264 13.7216l-187.8016 37.4784a55.9616 55.9616 0 0 1-66.9184-54.8864V281.2416c0-50.688 34.048-95.1296 83.0464-108.1856l165.376-44.2368a13.9264 13.9264 0 0 1 17.5616 13.4656z" p-id="32850" fill="#707070"></path></svg>