<?xml version="1.0" standalone="no"?><!DOCTYPE svg PUBLIC "-//W3C//DTD SVG 1.1//EN" "http://www.w3.org/Graphics/SVG/1.1/DTD/svg11.dtd"><svg t="1776934553610" class="icon" viewBox="0 0 1024 1024" version="1.1" xmlns="http://www.w3.org/2000/svg" p-id="45187" xmlns:xlink="http://www.w3.org/1999/xlink" width="200" height="200"><path d="M618.666667 825.301333l9.173333 17.066667h79.189333a27.306667 27.306667 0 0 1 27.818667 26.837333 27.306667 27.306667 0 0 1-27.818667 26.794667H317.013333a27.264 27.264 0 0 1-27.733333-26.794667c0-14.805333 12.373333-26.794667 27.733333-26.794666h79.232l9.130667-17.109334h213.333333zM867.584 128C913.493333 128.042667 938.666667 154.453333 938.666667 198.741333v520.448c0 44.458667-25.173333 70.698667-71.125334 70.698667H156.458667C110.506667 789.888 85.333333 763.648 85.333333 719.274667v-520.533334C85.333333 154.368 110.506667 128 156.458667 128h711.125333zM361.557333 568.96H169.173333a4.906667 4.906667 0 0 0-4.906666 4.992v113.92c0 2.773333 2.176 4.992 4.906666 4.992h192.384a4.949333 4.949333 0 0 0 4.949334-4.949333v-113.962667a4.949333 4.949333 0 0 0-4.949334-4.992z m246.613334 0H415.829333a4.906667 4.906667 0 0 0-4.949333 4.992v113.92c0 2.773333 2.218667 4.992 4.949333 4.992h192.341334a4.906667 4.906667 0 0 0 4.949333-4.949333v-113.962667a4.949333 4.949333 0 0 0-4.949333-4.992z m246.613333 0h-192.341333a4.906667 4.906667 0 0 0-4.949334 4.992v113.92c0 2.773333 2.218667 4.992 4.949334 4.992h192.384a4.906667 4.906667 0 0 0 4.906666-4.949333v-113.962667a4.949333 4.949333 0 0 0-4.906666-4.992zM361.6 395.562667H169.173333a4.949333 4.949333 0 0 0-4.906666 4.949333v113.962667a4.949333 4.949333 0 0 0 4.906666 4.949333h192.384a4.906667 4.906667 0 0 0 4.949334-4.949333v-113.92a4.949333 4.949333 0 0 0-4.949334-4.992z m246.613333 0H415.829333a4.949333 4.949333 0 0 0-4.949333 4.949333v113.962667a4.949333 4.949333 0 0 0 4.949333 4.949333h192.341334a4.906667 4.906667 0 0 0 4.949333-4.949333v-113.92a4.949333 4.949333 0 0 0-4.949333-4.992z m246.613334 0h-192.341334a4.949333 4.949333 0 0 0-4.949333 4.949333v113.962667a4.949333 4.949333 0 0 0 4.949333 4.949333h192.384a4.906667 4.906667 0 0 0 4.906667-4.949333v-113.92a4.949333 4.949333 0 0 0-4.906667-4.992zM361.6 222.122667H169.173333a4.949333 4.949333 0 0 0-4.906666 4.992v113.92a4.949333 4.949333 0 0 0 4.906666 4.992h192.384a4.949333 4.949333 0 0 0 4.949334-4.949334V227.114667a4.949333 4.949333 0 0 0-4.949334-4.992z m246.613333 0H415.829333a4.949333 4.949333 0 0 0-4.949333 4.992v113.92a4.949333 4.949333 0 0 0 4.949333 4.992h192.341334a4.906667 4.906667 0 0 0 4.949333-4.949334V227.114667a4.949333 4.949333 0 0 0-4.949333-4.992z m246.613334 0h-192.341334a4.949333 4.949333 0 0 0-4.949333 4.992v113.92a4.949333 4.949333 0 0 0 4.949333 4.992h192.384a4.906667 4.906667 0 0 0 4.906667-4.949334V227.114667a4.949333 4.949333 0 0 0-4.906667-4.992z" fill="#8a8a8a" p-id="45188"></path></svg>