<?xml version="1.0" standalone="no"?><!DOCTYPE svg PUBLIC "-//W3C//DTD SVG 1.1//EN" "http://www.w3.org/Graphics/SVG/1.1/DTD/svg11.dtd"><svg t="1774613841152" class="icon" viewBox="0 0 1024 1024" version="1.1" xmlns="http://www.w3.org/2000/svg" p-id="7435" xmlns:xlink="http://www.w3.org/1999/xlink" width="200" height="200"><path d="M624.4352 399.872m-67.7888 0a67.7888 67.7888 0 1 0 135.5776 0 67.7888 67.7888 0 1 0-135.5776 0Z" fill="#9fc6ff" p-id="7436"></path><path d="M921.8048 472.064L839.68 208.1792a35.76832 35.76832 0 0 0-23.552-23.552l-263.8336-82.176a35.84 35.84 0 0 0-35.9936 8.8576L111.616 515.9424a35.87584 35.87584 0 0 0 0 50.688l346.0096 346.0096a35.6352 35.6352 0 0 0 25.344 10.496c9.5744 0 18.5856-3.7376 25.344-10.496l404.6336-404.6336a35.64032 35.64032 0 0 0 8.8576-35.9424z m-407.6544 227.072c-5.0176 5.0176-11.5712 7.4752-18.1248 7.4752s-13.1072-2.5088-18.1248-7.4752L325.12 546.3552a25.61536 25.61536 0 0 1 0-36.1984 25.61536 25.61536 0 0 1 36.1984 0l152.7808 152.7808a25.56928 25.56928 0 0 1 0.0512 36.1984z m110.2848-180.2752c-65.5872 0-118.9888-53.3504-118.9888-118.9888s53.3504-118.9888 118.9888-118.9888S743.424 334.2336 743.424 399.872s-53.4016 118.9888-118.9888 118.9888z" fill="#9fc6ff" p-id="7437"></path></svg>