<?xml version="1.0" standalone="no"?><!DOCTYPE svg PUBLIC "-//W3C//DTD SVG 1.1//EN" "http://www.w3.org/Graphics/SVG/1.1/DTD/svg11.dtd"><svg t="1774615487485" class="icon" viewBox="0 0 1024 1024" version="1.1" xmlns="http://www.w3.org/2000/svg" p-id="10922" xmlns:xlink="http://www.w3.org/1999/xlink" width="200" height="200"><path d="M512 1024c-27.4226 0-54.845199-9.363815-77.585892-28.760287L85.277596 695.597649C59.192685 672.856956 43.809275 640.083605 43.809275 605.303723V268.206401c0-47.487916 28.091444-90.293926 72.23514-109.021554L465.180927 9.363815c29.429131-12.708034 64.209014-12.708034 93.638146 0l349.136512 149.821032c43.474853 18.727629 72.23514 61.533638 72.23514 109.021554v337.097322c0 34.779882-15.38341 67.553233-41.468321 90.293926l-349.136512 299.642064c-22.740692 19.396473-50.163292 28.760287-77.585892 28.760287zM477.888961 39.46179L128.752449 189.282822c-32.104507 13.376878-52.169824 44.812541-52.169823 79.592423v337.097322c0 25.416068 10.701502 49.494448 30.097975 65.546701l349.136512 299.642064c32.773351 28.091444 80.261267 28.091444 113.034618 0l349.136512-299.642064c19.396473-16.721097 30.097975-40.130634 30.097975-65.546701V268.875245c0-34.779882-20.734161-66.215545-52.169823-79.592423L546.111039 39.46179c-21.403005-9.363815-46.819073-9.363815-68.222078 0z" p-id="10923"></path><path d="M477.220118 335.759634H318.704115v-57.520575h386.59177v57.520575H545.442195v464.846506H477.220118V335.759634z" p-id="10924"></path></svg>