<?xml version="1.0" standalone="no"?><!DOCTYPE svg PUBLIC "-//W3C//DTD SVG 1.1//EN" "http://www.w3.org/Graphics/SVG/1.1/DTD/svg11.dtd"><svg t="1774614690184" class="icon" viewBox="0 0 1024 1024" version="1.1" xmlns="http://www.w3.org/2000/svg" p-id="5643" xmlns:xlink="http://www.w3.org/1999/xlink" width="200" height="200"><path d="M682.666667 832a42.666667 42.666667 0 0 1 0 85.333333H341.333333a42.666667 42.666667 0 0 1 0-85.333333h341.333334z m149.333333-725.333333a85.333333 85.333333 0 0 1 85.333333 85.333333V682.666667a85.333333 85.333333 0 0 1-85.333333 85.333333h-640a85.333333 85.333333 0 0 1-85.333333-85.333333V192a85.333333 85.333333 0 0 1 85.333333-85.333333h640z" fill="#4D7CFF" p-id="5644"></path><path d="M565.333333 570.965333l-2.688-0.128a31.829333 31.829333 0 0 1-4.010666-0.597333l-1.237334-0.341333a31.786667 31.786667 0 0 1-19.626666-14.933334L443.306667 391.338667l-66.56 79.317333-1.792 1.92a32.213333 32.213333 0 0 1-0.469334 0.426667l2.304-2.346667a32.128 32.128 0 0 1-4.693333 4.565333l-1.024 0.725334a21.418667 21.418667 0 0 1-4.266667 2.645333 31.488 31.488 0 0 1-14.762666 3.626667h-64a32 32 0 1 1 0-64h49.152L423.68 315.136a32 32 0 0 1 52.266667 4.565333v0.128l89.557333 155.221334 47.061333-81.408a32 32 0 0 1 29.141334-15.957334l94.293333 0.042667a32 32 0 1 1 0 64h-77.354667l-65.322666 113.237333a31.914667 31.914667 0 0 1-19.626667 14.933334l-1.28 0.298666a28.586667 28.586667 0 0 1-6.656 0.768h-0.426667z" fill="#F5F8FF" p-id="5645"></path></svg>