<?xml version="1.0" standalone="no"?><!DOCTYPE svg PUBLIC "-//W3C//DTD SVG 1.1//EN" "http://www.w3.org/Graphics/SVG/1.1/DTD/svg11.dtd"><svg t="1775138382336" class="icon" viewBox="0 0 1024 1024" version="1.1" xmlns="http://www.w3.org/2000/svg" p-id="18779" xmlns:xlink="http://www.w3.org/1999/xlink" width="200" height="200"><path d="M859.755941 1024H164.244059C73.680793 1024 0 950.319207 0 859.755941V164.244059C0 73.680793 73.680793 0 164.244059 0h695.511882c90.563266 0 164.244059 73.680793 164.244059 164.244059v695.511882c0 90.563266-73.680793 164.244059-164.244059 164.244059zM164.244059 86.132617a78.201455 78.201455 0 0 0-78.111442 78.111442v695.511882a78.201455 78.201455 0 0 0 78.111442 78.111442h695.511882a78.201455 78.201455 0 0 0 78.111442-78.111442V164.244059a78.201455 78.201455 0 0 0-78.111442-78.111442z" fill="#666767" p-id="18780"></path><path d="M350.791385 479.210197c-78.101441 0-141.640748-63.539308-141.640748-141.640748s63.539308-141.630747 141.640748-141.630747 141.630747 63.539308 141.630747 141.630747-63.529306 141.640748-141.630747 141.640748z m0-197.138878a55.508131 55.508131 0 1 0 55.49813 55.49813A55.56814 55.56814 0 0 0 350.791385 282.041315zM665.857538 794.436373c-78.091439 0-141.630747-63.539308-141.630747-141.630747s63.539308-141.640748 141.630747-141.640748 141.640748 63.539308 141.640748 141.640748-63.539308 141.630747-141.640748 141.630747z m0-197.138878a55.508131 55.508131 0 1 0 55.508131 55.508131 55.56814 55.56814 0 0 0-55.508131-55.508131z" fill="#666767" p-id="18781"></path><path d="M239.95515 380.645759h-45.25663a43.07631 43.07631 0 0 1 0-86.142619h45.25663a43.07631 43.07631 0 0 1 0 86.142619zM841.853318 695.871934h-45.246628a43.07631 43.07631 0 1 1 0-86.142618h45.246628a43.07631 43.07631 0 0 1 0 86.142618zM521.07633 695.871934H194.69852a43.07631 43.07631 0 0 1 0-86.142618H521.07633a43.07631 43.07631 0 0 1 0 86.142618zM844.953773 380.645759h-371.754457a43.07631 43.07631 0 0 1 0-86.142619h371.754457a43.07631 43.07631 0 0 1 0 86.142619z" fill="#666767" p-id="18782"></path></svg>