<?xml version="1.0" standalone="no"?><!DOCTYPE svg PUBLIC "-//W3C//DTD SVG 1.1//EN" "http://www.w3.org/Graphics/SVG/1.1/DTD/svg11.dtd"><svg t="1775138080733" class="icon" viewBox="0 0 1024 1024" version="1.1" xmlns="http://www.w3.org/2000/svg" p-id="14883" xmlns:xlink="http://www.w3.org/1999/xlink" width="200" height="200"><path d="M192 192h338.8c8.33 0 16.276 3.265 22.237 9.043l0.363 0.357 173.2 173.3c5.88 5.88 9.263 13.777 9.4 22.09V928c0 17.523-14.015 31.714-31.47 32H192c-17.523 0-31.714-14.015-32-31.47V224c0-17.523 14.015-31.714 31.47-32h0.53z m260 72H232v624h432V476H492c-22.091 0-40-17.909-40-40V264zM296 64h293.1c8.127 0 15.87 3.068 21.823 8.547l0.377 0.353 242.9 233.7c6.179 5.885 9.664 13.982 9.8 22.499V824c0 4.317-3.465 7.864-7.752 8H800c-4.317 0-7.864-3.465-7.996-7.752L792 824V346.6L573 136H296c-4.317 0-7.864-3.465-8-7.752V72c0-4.317 3.465-7.864 7.752-8H589.1 296z m366.2 348L516 265.8V412h146.2z" fill="#000000" p-id="14884"></path></svg>