<?xml version="1.0" standalone="no"?><!DOCTYPE svg PUBLIC "-//W3C//DTD SVG 1.1//EN" "http://www.w3.org/Graphics/SVG/1.1/DTD/svg11.dtd"><svg t="1774615267930" class="icon" viewBox="0 0 1024 1024" version="1.1" xmlns="http://www.w3.org/2000/svg" p-id="9905" xmlns:xlink="http://www.w3.org/1999/xlink" width="200" height="200"><path d="M512 205.750857a364.544 364.544 0 0 1 364.544 364.544v266.24a36.571429 36.571429 0 0 1-36.571429 36.571429H184.027429a36.571429 36.571429 0 0 1-36.571429-36.571429v-266.24A364.544 364.544 0 0 1 512 205.750857zM479.963429 4.608h64c5.12 0 9.142857 4.022857 9.142857 9.069714v109.714286a9.142857 9.142857 0 0 1-9.142857 9.142857h-64a9.142857 9.142857 0 0 1-9.142858-9.142857v-109.714286c0-5.046857 4.096-9.069714 9.142858-9.069714zM129.462857 145.846857a9.142857 9.142857 0 0 1 12.873143 0l77.604571 77.531429a9.142857 9.142857 0 0 1 0 12.946285l-45.275428 45.275429a9.142857 9.142857 0 0 1-12.873143 0L84.114286 204.068571a9.142857 9.142857 0 0 1 0-13.019428l45.275428-45.202286z m765.220572 0l45.275428 45.202286a9.142857 9.142857 0 0 1 0 12.946286l-77.531428 77.531428a9.142857 9.142857 0 0 1-13.019429 0l-45.202286-45.202286a9.142857 9.142857 0 0 1 0-12.946285l77.531429-77.531429a9.142857 9.142857 0 0 1 12.946286 0zM146.285714 946.322286h731.428572a36.571429 36.571429 0 0 1 36.571428 36.571428v27.355429a9.142857 9.142857 0 0 1-9.142857 9.216H118.857143a9.142857 9.142857 0 0 1-9.142857-9.216v-27.355429a36.571429 36.571429 0 0 1 36.571428-36.571428z m169.179429-362.349715v289.206858h73.142857V583.899429h-73.142857z" fill="#9EA3B8" p-id="9906"></path></svg>