<?xml version="1.0" standalone="no"?><!DOCTYPE svg PUBLIC "-//W3C//DTD SVG 1.1//EN" "http://www.w3.org/Graphics/SVG/1.1/DTD/svg11.dtd"><svg t="1774616999953" class="icon" viewBox="0 0 1024 1024" version="1.1" xmlns="http://www.w3.org/2000/svg" p-id="17789" xmlns:xlink="http://www.w3.org/1999/xlink" width="200" height="200"><path d="M18.962963 18.962963h986.074074v986.074074H18.962963z" fill="#B2B2B2" fill-opacity="0" p-id="17790"></path><path d="M73.272889 767.506963A35.877926 35.877926 0 0 1 37.925926 731.32563v-188.036741c0-19.873185 15.928889-36.143407 35.346963-36.143408s35.309037 16.270222 35.309037 36.143408v188.036741c-1.744593 19.911111-15.890963 36.181333-35.309037 36.181333zM950.727111 767.506963a35.877926 35.877926 0 0 1-35.309037-36.181333v-188.036741c0-19.873185 15.890963-36.143407 35.309037-36.143408 19.456 0 35.346963 16.270222 35.346963 36.143408v188.036741c0 19.911111-15.928889 36.181333-35.346963 36.181333zM594.450963 141.539556c0-46.648889-37.015704-84.650667-82.450963-84.650667s-82.450963 38.001778-82.450963 84.650667c0 34.512593 20.176593 63.905185 48.810667 77.710222v146.811259h67.280592V219.249778a86.243556 86.243556 0 0 0 48.810667-77.748148zM512 118.708148a20.66963 20.66963 0 0 1 0 41.225482c-12.363852 0-20.593778-8.229926-20.593778-20.593778 0-12.363852 10.277926-20.631704 20.593778-20.631704z" fill="#3979FF" p-id="17791"></path><path d="M787.607704 328.135111c53.020444 0 95.42163 45.207704 95.421629 97.659259v423.063704c0 54.234074-42.401185 97.659259-95.421629 97.659259H236.392296c-53.020444 0-95.42163-43.425185-95.421629-97.659259V425.79437c0-54.234074 42.401185-97.659259 95.421629-97.659259z m-183.751111 356.200296h-183.713186c-24.76563 0-45.966222 21.69363-45.966222 47.028149 0 25.296593 21.238519 46.990222 45.966222 46.990222h183.713186c24.76563 0 45.966222-19.911111 45.966222-47.028148 0-25.296593-21.238519-47.028148-45.966222-47.028149z m-252.624593-188.03674c-24.727704 0-45.928296 21.69363-45.928296 47.028148 0 27.079111 21.200593 46.990222 45.89037 46.990222 24.76563 0 45.966222-21.69363 45.966222-47.028148 0-25.296593-21.200593-47.028148-45.928296-47.028148z m321.536 0c-24.727704 0-45.928296 21.69363-45.928296 47.028148 0 25.296593 21.200593 46.990222 45.928296 46.990222 26.510222 0 45.928296-21.69363 45.928296-47.028148 0-25.296593-21.200593-47.028148-45.89037-47.028148z" fill="#0DCA90" p-id="17792"></path></svg>