<?xml version="1.0" standalone="no"?><!DOCTYPE svg PUBLIC "-//W3C//DTD SVG 1.1//EN" "http://www.w3.org/Graphics/SVG/1.1/DTD/svg11.dtd"><svg t="1774614966313" class="icon" viewBox="0 0 1024 1024" version="1.1" xmlns="http://www.w3.org/2000/svg" p-id="7803" xmlns:xlink="http://www.w3.org/1999/xlink" width="200" height="200"><path d="M541.09 702.22c-4.35 2.53-2.89 6.83-2.9 10.46-0.1 39.93 0.34 79.86-0.32 119.78-0.19 11.33 3.83 13.97 14.32 13.89 53.79-0.41 107.58-0.09 161.37-0.26 13.97-0.05 26.13 2.82 33.51 16.1 3.55 6.57 3.87 13.12-0.16 19.63-6.64 10.88-16.3 14.75-29.01 14.72-136.66-0.26-273.32-0.22-409.98-0.09-7.97 0.01-15.33-1.35-22.33-4.97-7.02-9.87-11.14-20.17-4.53-31.95 6.57-11.71 17.52-13.54 29.58-13.44 10.37 0.09 20.76-0.43 31.13-0.68 4.59-2.86 9.73-1.74 14.56-1.55 36.95 1.46 73.68-2.05 110.49-4.22 12.98-0.77 15.45-7.32 15.47-18.12 0.08-45.31-0.2-90.61 0.13-135.92 0.1-14.14 1.6-27.85 15.69-36.01 6.94-2.68 14.22-1.95 21.39-2 106.44-0.87 212.88-1.57 319.33-1.25 32.56 0.1 32.62-0.08 32.63-31.74 0.03-131.97 0.01-263.94 0.01-395.9 0-4.44-0.28-8.88-0.1-13.3 0.46-11.15-4.54-16.5-15.83-15.98-3.31 0.15-6.65-0.13-9.97-0.15-221.77-1.64-443.55-1.12-665.32-1.17-7.15 0-14.52-0.98-20.73 3.91-5.84 5.17-4.65 12.23-4.65 18.68-0.06 142.26-0.34 284.53 0.16 426.73 0.33 5.45 2.07 9.97 8.49 10.11 25.15 0.56 48.7 3.18 68.32-21.73 47.15-59.84 97.04-117.55 146.1-175.88 4.27-5.08 8.42-10.25 13.3-14.76 13.9-12.86 29.26-13.85 45.09-2.92 7.29 5.04 14.05 10.73 20.2 17.11 13.17 14.29 29.06 25.57 43.16 38.84 6.55 6.17 12.59 7.3 19.66-0.61 39.07-43.72 79.15-86.55 117.16-131.23 5.09-5.06 9.82-10.53 15.72-14.67 12.5-8.79 28.19-8.35 38.2 0.87 11.78 10.84 13.72 24.54 3.92 38.61-13.58 19.49-31.5 35.35-46.61 53.61-32.4 35.4-64.09 71.43-96 107.28-0.73 0.82-1.34 1.75-2.04 2.61-26.69 32.62-44.38 32.64-70.94 0.11-15.65-18.06-35.87-31.14-52.54-48.08-6.03-6.12-11.34-5.44-16.69 1.04-50 60.53-100.06 121.01-150.11 181.51 0.11 5.34-2.11 8.69-7.79 9.07-3.56 3.4-7.11 6.8-10.67 10.2-22.8 6.96-46.17 2.51-69.26 3.21-14.89 0.45-29.83-0.95-44.75-1.48-20.1-0.71-28.71-8.74-28.72-28.35-0.12-170.57-0.02-341.13-0.2-511.7-0.01-8.86 2.87-16.14 7.57-23.13 0.13-0.7 0.26-1.4 0.38-2.11 2.62-4.08 6.47-5.39 11.1-4.95 0.7 0.1 1.41 0.21 2.11 0.32 256.59-0.13 513.19-0.3 769.78-0.32 31.61 0 39.04 7.81 39.04 39.27 0.01 165.16 0.02 330.33 0.01 495.49 0 28.7-6.61 35.45-34.95 35.46-111.4 0.03-222.8-0.03-334.21 0.1-5.93-0.01-12.22-1.94-17.77 1.9z" fill="#1D7ED0" p-id="7804"></path></svg>