<?xml version="1.0" standalone="no"?><!DOCTYPE svg PUBLIC "-//W3C//DTD SVG 1.1//EN" "http://www.w3.org/Graphics/SVG/1.1/DTD/svg11.dtd"><svg t="1774512929579" class="icon" viewBox="0 0 1024 1024" version="1.1" xmlns="http://www.w3.org/2000/svg" p-id="6123" xmlns:xlink="http://www.w3.org/1999/xlink" width="200" height="200"><path d="M991.775776 127.743744L878.638639 15.375375a52.372372 52.372372 0 0 0-74.058058 74.058058l73.353353 73.545546-54.134134 56.504504a47.039039 47.039039 0 0 0 0 65.473474 43.083083 43.083083 0 0 0 32.16016 13.773774l61.245245-0.128128v480.032032a32.032032 32.032032 0 0 1-64.064064 0V479.967968a138.650651 138.650651 0 0 0-138.57057-138.634635h-32.032032V85.333333A85.301301 85.301301 0 0 0 597.205205 0H149.333333a85.301301 85.301301 0 0 0-85.333333 85.333333V917.397397h-10.634635a53.301301 53.301301 0 0 0 0 106.602603h640a53.301301 53.301301 0 0 0 0-106.602603h-10.826826v-469.269269h32.032032a32.032032 32.032032 0 0 1 32.032032 32.032032v298.538539a138.634635 138.634635 0 1 0 277.269269 0V204.364364a107.307307 107.307307 0 0 0-32.096096-76.62062zM500.628629 675.107107l-159.391392 225.825826a8.008008 8.008008 0 0 1-5.813814 2.482482 3.395395 3.395395 0 0 1-2.482482-0.832832c-3.875876-1.121121-5.253253-3.315315-4.148148-6.630631l25.737738-151.975976h-112.112113a5.957958 5.957958 0 0 1-5.813813-3.331331q-2.466466-3.283283 0.832832-7.463464l172.668669-225.825826c2.226226-3.315315 4.708709-3.85986 7.47948-1.601601 2.770771 0.560561 4.148148 2.786787 4.148148 6.646646l-25.737738 151.927928h98.786787a5.973974 5.973974 0 0 1 5.813814 3.315316 16.720721 16.720721 0 0 1 0.032032 7.463463z m75.275275-295.271271a46.750751 46.750751 0 0 1-46.894895 46.894895h-311.511512a46.750751 46.750751 0 0 1-46.894894-46.958959V153.625626a46.750751 46.750751 0 0 1 46.894894-46.894895h311.47948a46.750751 46.750751 0 0 1 46.894895 46.894895z" fill="#67C23A" p-id="6124"></path></svg>