<?xml version="1.0" standalone="no"?><!DOCTYPE svg PUBLIC "-//W3C//DTD SVG 1.1//EN" "http://www.w3.org/Graphics/SVG/1.1/DTD/svg11.dtd"><svg t="1774513467388" class="icon" viewBox="0 0 1024 1024" version="1.1" xmlns="http://www.w3.org/2000/svg" p-id="12526" xmlns:xlink="http://www.w3.org/1999/xlink" width="200" height="200"><path d="M804.565333 0A219.434667 219.434667 0 0 1 1024 219.434667v585.130666A219.434667 219.434667 0 0 1 804.565333 1024H219.434667A219.434667 219.434667 0 0 1 0 804.565333V219.434667A219.434667 219.434667 0 0 1 219.434667 0h585.130666z m-97.365333 274.304H546.56V749.653333h160.64c23.466667 0 42.496-22.997333 42.496-51.370666V325.674667c0-28.373333-19.029333-51.370667-42.496-51.370667z m-211.456 0H335.104c-23.466667 0-42.538667 22.997333-42.538667 51.370667v372.650666c0 28.373333 19.029333 51.370667 42.538667 51.370667h160.64V274.346667zM597.333333 402.773333c0-23.168 27.904-34.474667 43.733334-17.749333l50.773333 53.674667c9.728 10.24 9.386667 26.496-0.768 36.309333a25.173333 25.173333 0 0 1-35.882667-0.768l-7.082666-7.466667v154.453334a25.557333 25.557333 0 0 1-25.386667 25.685333 25.557333 25.557333 0 0 1-25.386667-25.685333z m-177.792-25.728c14.08 0 25.429333 11.52 25.429334 25.685334v218.453333c0 23.168-27.904 34.517333-43.776 17.749333l-50.773334-53.632a25.898667 25.898667 0 0 1 0.768-36.352 25.173333 25.173333 0 0 1 35.925334 0.768l7.04 7.466667V402.773333c0-14.165333 11.392-25.685333 25.386666-25.685333z" fill="#4B9AFC" p-id="12527"></path><path d="M707.2 274.304c23.466667 0 42.496 22.997333 42.496 51.370667v372.650666c0 28.373333-19.029333 51.370667-42.496 51.370667H546.56V274.346667h160.64z m-211.456 0V749.653333H335.104c-23.466667 0-42.538667-22.997333-42.538667-51.370666V325.674667c0-28.373333 19.029333-51.370667 42.538667-51.370667h160.64zM597.333333 402.773333v218.453334c0 14.208 11.349333 25.685333 25.386667 25.685333 14.037333 0 25.386667-11.52 25.386667-25.685333v-154.453334l7.082666 7.466667a25.173333 25.173333 0 0 0 35.882667 0.768 25.898667 25.898667 0 0 0 0.810667-36.309333l-50.773334-53.674667C625.194667 368.341333 597.333333 379.648 597.333333 402.773333z m-177.792-25.728a25.557333 25.557333 0 0 0-25.386666 25.685334v154.453333l-7.04-7.466667a25.173333 25.173333 0 0 0-35.925334-0.768 25.898667 25.898667 0 0 0-0.768 36.352l50.773334 53.632c15.872 16.768 43.776 5.418667 43.776-17.749333V402.773333a25.557333 25.557333 0 0 0-25.429334-25.685333z" fill="#FFFFFF" p-id="12528"></path></svg>