<?xml version="1.0" standalone="no"?><!DOCTYPE svg PUBLIC "-//W3C//DTD SVG 1.1//EN" "http://www.w3.org/Graphics/SVG/1.1/DTD/svg11.dtd"><svg t="1774513012948" class="icon" viewBox="0 0 1024 1024" version="1.1" xmlns="http://www.w3.org/2000/svg" p-id="7147" xmlns:xlink="http://www.w3.org/1999/xlink" width="200" height="200"><path d="M850.707692 577.378462l-3.150769 59.076923 70.104615 41.747692-33.083076 14.178461-61.44-33.870769-71.68 27.569231 59.076923 38.596923-33.083077 15.753846-62.227693-40.172307L631.729231 732.553846l66.953846 41.747692-37.021539 15.753847-69.316923-44.11077L504.123077 776.664615l74.830769 50.412308-39.384615 17.329231-423.778462-293.809231-80.344615 26.781539 7.089231 76.406153 410.387692 315.076923 87.433846-39.384615v-48.049231l158.326154-70.104615-1.575385 47.261538 77.193846-35.446153 2.363077-46.473847 140.209231-62.227692-3.150769 45.686154 68.529231-31.507692 6.301538-79.556923-137.846154-71.68zM77.193846 649.846154l-4.726154-45.686154 117.366154 86.646154 3.938462 48.049231L77.193846 649.846154z m183.532308 139.421538l-3.150769-48.836923 141.784615 103.975385 1.575385 51.2-140.209231-106.338462z m0 0" fill="#C59B5A" p-id="7148"></path><path d="M452.923077 968.861538l87.433846-39.384615v-48.049231l158.326154-70.104615-1.575385 47.261538 77.193846-35.446153 2.363077-46.473847 140.209231-62.227692-3.150769 45.686154 68.529231-31.507692 6.301538-79.556923-137.058461-70.892308-3.15077 59.076923 70.104616 41.747692-33.083077 14.178462-61.44-33.870769-71.68 27.56923 59.076923 38.596923-33.870769 14.966154-62.227693-40.172307L631.729231 732.553846l66.953846 41.747692-37.021539 15.753847-69.316923-44.11077L504.123077 776.664615l74.830769 50.412308-39.384615 17.329231-85.858462 26.781538" fill="#F1CB8B" p-id="7149"></path><path d="M540.356923 844.406154L115.790769 550.596923 35.446154 577.378462l417.476923 307.2M988.553846 648.270769l-3.150769 34.658462 3.150769-34.658462-137.058461-70.892307-3.15077 59.076923 70.104616 41.747692-33.083077 14.178461-61.44-33.870769-71.68 27.569231L811.323077 724.676923l-33.870769 15.753846-62.227693-40.172307L631.729231 732.553846l66.953846 41.747692-37.021539 15.753847-69.316923-44.11077L504.123077 776.664615l74.830769 50.412308m181.169231-59.076923" fill="#F1CB8B" p-id="7150"></path><path d="M986.190769 648.270769l-3.150769 34.658462 3.150769-34.658462-137.058461-70.892307-3.15077 59.076923 70.104616 41.747692" fill="#C59B5A" p-id="7151"></path><path d="M149.661538 600.221538L448.984615 803.446154l425.353847-156.750769 16.541538-500.972308-138.633846-37.021539-441.895385 92.16 4.726154 181.169231-57.501538-28.356923-5.513847-179.593846 435.593847-89.009231L570.289231 55.138462 149.661538 128.393846z" fill="#C59B5A" p-id="7152"></path><path d="M149.661538 128.393846l321.378462 144.147692L874.338462 646.695385l16.541538-500.972308-138.633846-37.021539-441.895385 92.16 4.726154 186.683077-57.501538-33.870769-5.513847-179.593846 435.593847-89.009231L570.289231 55.138462 149.661538 128.393846z" fill="#F1CB8B" p-id="7153"></path><path d="M887.729231 220.553846L874.338462 646.695385 448.984615 803.446154l-11.815384-545.870769 453.710769-111.852308z" fill="#D6A769" p-id="7154"></path><path d="M789.267692 586.043077l0.787693-26.781539-232.369231 77.193847v32.295384l231.581538-82.707692zM695.532308 374.153846l26.781538-6.301538-5.513846 178.806154 34.658462-10.24 5.513846-177.23077 25.993846-6.301538-39.384616-75.618462-3.150769 0.787693-44.898461 96.098461z m-124.455385 40.96l26.781539-6.301538-1.575385 179.593846 40.172308-11.815385 3.150769-177.230769 26.781538-6.301538-44.898461-78.769231h-1.575385l-48.836923 100.824615z m0 0" fill="#FFFFFF" p-id="7155"></path></svg>