<?xml version="1.0" standalone="no"?><!DOCTYPE svg PUBLIC "-//W3C//DTD SVG 1.1//EN" "http://www.w3.org/Graphics/SVG/1.1/DTD/svg11.dtd"><svg t="1774513553338" class="icon" viewBox="0 0 1080 1024" version="1.1" xmlns="http://www.w3.org/2000/svg" p-id="16445" xmlns:xlink="http://www.w3.org/1999/xlink" width="210.9375" height="200"><path d="M1024 1024h-142.222222c-31.288889 0-56.888889-25.6-56.888889-56.888889V56.888889c0-31.288889 25.6-56.888889 56.888889-56.888889h142.222222c31.288889 0 56.888889 25.6 56.888889 56.888889v910.222222c0 31.288889-25.6 56.888889-56.888889 56.888889zM881.777778 56.888889v910.222222h142.222222V56.888889h-142.222222zM199.111111 1024H56.888889c-31.288889 0-56.888889-25.6-56.888889-56.888889V56.888889C0 25.6 25.6 0 56.888889 0h142.222222c31.288889 0 56.888889 25.6 56.888889 56.888889v910.222222c0 31.288889-25.6 56.888889-56.888889 56.888889zM56.888889 56.888889v910.222222h142.222222V56.888889H56.888889z m768 881.777778h-170.666667c-48.355556 0-85.333333-36.977778-85.333333-85.333334V369.777778c0-48.355556 36.977778-85.333333 85.333333-85.333334h170.666667c48.355556 0 85.333333 36.977778 85.333333 85.333334v483.555555c0 48.355556-36.977778 85.333333-85.333333 85.333334z m-170.666667-597.333334c-17.066667 0-28.444444 11.377778-28.444444 28.444445v483.555555c0 17.066667 11.377778 28.444444 28.444444 28.444445h170.666667c17.066667 0 28.444444-11.377778 28.444444-28.444445V369.777778c0-17.066667-11.377778-28.444444-28.444444-28.444445h-170.666667z m-227.555555 597.333334H256c-48.355556 0-85.333333-36.977778-85.333333-85.333334V369.777778c0-48.355556 36.977778-85.333333 85.333333-85.333334h170.666667c48.355556 0 85.333333 36.977778 85.333333 85.333334v483.555555c0 48.355556-36.977778 85.333333-85.333333 85.333334zM256 341.333333c-17.066667 0-28.444444 11.377778-28.444444 28.444445v483.555555c0 17.066667 11.377778 28.444444 28.444444 28.444445h170.666667c17.066667 0 28.444444-11.377778 28.444444-28.444445V369.777778c0-17.066667-11.377778-28.444444-28.444444-28.444445H256zM85.333333 113.777778h85.333334v56.888889H85.333333V113.777778z m0 85.333333h85.333334v56.888889H85.333333V199.111111z m824.888889-85.333333h85.333334v56.888889h-85.333334V113.777778z m0 85.333333h85.333334v56.888889h-85.333334V199.111111zM128 625.777778c22.755556 0 42.666667 19.911111 42.666667 42.666666S150.755556 711.111111 128 711.111111 85.333333 691.2 85.333333 668.444444 105.244444 625.777778 128 625.777778z m0 142.222222c22.755556 0 42.666667 19.911111 42.666667 42.666667S150.755556 853.333333 128 853.333333 85.333333 833.422222 85.333333 810.666667 105.244444 768 128 768z m824.888889-142.222222c22.755556 0 42.666667 19.911111 42.666667 42.666666s-19.911111 42.666667-42.666667 42.666667-42.666667-19.911111-42.666667-42.666667 19.911111-42.666667 42.666667-42.666666z m0 142.222222c22.755556 0 42.666667 19.911111 42.666667 42.666667s-19.911111 42.666667-42.666667 42.666666-42.666667-19.911111-42.666667-42.666666 19.911111-42.666667 42.666667-42.666667zM625.777778 426.666667h85.333333c31.288889 0 56.888889 25.6 56.888889 56.888889v369.777777c0 31.288889-25.6 56.888889-56.888889 56.888889h-85.333333c-31.288889 0-56.888889-25.6-56.888889-56.888889V483.555556c0-31.288889 25.6-56.888889 56.888889-56.888889z m-256 0h85.333333c31.288889 0 56.888889 25.6 56.888889 56.888889v369.777777c0 31.288889-25.6 56.888889-56.888889 56.888889h-85.333333c-31.288889 0-56.888889-25.6-56.888889-56.888889V483.555556c0-31.288889 25.6-56.888889 56.888889-56.888889z" fill="#0276F7" p-id="16446"></path></svg>